<svg xmlns="http://www.w3.org/2000/svg" xmlns:xlink="http://www.w3.org/1999/xlink" viewBox="17.66699981689453 33.80414581298828 472 175.36285400390625" width="538.3124067876839" height="200"><path d="M 58.333,176.833 C 58.867,173.143 59.500,173.500 60.667,170.167" stroke-width="5.461" stroke="black" fill="none" stroke-linecap="round"></path><path d="M 60.667,170.167 C 64.140,166.551 63.200,165.976 67.000,162.500" stroke-width="3.966" stroke="black" fill="none" stroke-linecap="round"></path><path d="M 67.000,162.500 C 70.032,157.943 70.140,158.051 72.667,153.167" stroke-width="3.509" stroke="black" fill="none" stroke-linecap="round"></path><path d="M 72.667,153.167 C 75.384,148.265 75.365,148.276 77.667,143.167" stroke-width="3.427" stroke="black" fill="none" stroke-linecap="round"></path><path d="M 77.667,143.167 C 80.471,137.107 80.384,137.098 82.667,130.833" stroke-width="3.170" stroke="black" fill="none" stroke-linecap="round"></path><path d="M 82.667,130.833 C 84.820,123.663 85.137,123.774 87.000,116.500" stroke-width="3.042" stroke="black" fill="none" stroke-linecap="round"></path><path d="M 87.000,116.500 C 89.351,108.285 89.487,108.329 92.000,100.167" stroke-width="2.873" stroke="black" fill="none" stroke-linecap="round"></path><path d="M 92.000,100.167 C 94.632,92.488 94.518,92.451 97.333,84.833" stroke-width="2.816" stroke="black" fill="none" stroke-linecap="round"></path><path d="M 97.333,84.833 C 99.598,78.308 99.632,78.321 102.000,71.833" stroke-width="3.011" stroke="black" fill="none" stroke-linecap="round"></path><path d="M 102.000,71.833 C 103.670,64.985 103.432,67.974 105.000,64.167" stroke-width="3.517" stroke="black" fill="none" stroke-linecap="round"></path><path d="M 105.000,64.167 C 106.084,66.612 105.836,63.652 106.333,69.167" stroke-width="4.559" stroke="black" fill="none" stroke-linecap="round"></path><path d="M 106.333,69.167 C 106.266,73.501 106.751,73.445 106.333,77.833" stroke-width="3.942" stroke="black" fill="none" stroke-linecap="round"></path><path d="M 106.333,77.833 C 106.435,84.169 106.432,84.168 106.667,90.500" stroke-width="3.343" stroke="black" fill="none" stroke-linecap="round"></path><path d="M 106.667,90.500 C 107.011,97.833 106.935,97.836 107.333,105.167" stroke-width="3.109" stroke="black" fill="none" stroke-linecap="round"></path><path d="M 107.333,105.167 C 107.830,112.997 107.678,113.000 108.000,120.833" stroke-width="2.979" stroke="black" fill="none" stroke-linecap="round"></path><path d="M 108.000,120.833 C 108.000,128.333 108.163,128.330 108.000,135.833" stroke-width="2.925" stroke="black" fill="none" stroke-linecap="round"></path><path d="M 108.000,135.833 C 108.000,142.667 108.000,142.667 108.000,149.500" stroke-width="3.058" stroke="black" fill="none" stroke-linecap="round"></path><path d="M 108.000,149.500 C 108.844,155.153 108.000,155.000 108.000,160.500" stroke-width="3.299" stroke="black" fill="none" stroke-linecap="round"></path><path d="M 108.000,160.500 C 107.392,165.188 107.344,164.653 105.000,168.500" stroke-width="3.548" stroke="black" fill="none" stroke-linecap="round"></path><path d="M 105.000,168.500 C 102.478,171.341 103.058,171.188 99.333,172.500" stroke-width="3.850" stroke="black" fill="none" stroke-linecap="round"></path><path d="M 99.333,172.500 C 95.840,173.087 96.145,173.675 92.333,173.167" stroke-width="3.939" stroke="black" fill="none" stroke-linecap="round"></path><path d="M 92.333,173.167 C 88.125,174.111 88.507,173.254 84.667,172.833" stroke-width="3.842" stroke="black" fill="none" stroke-linecap="round"></path><path d="M 84.667,172.833 C 80.152,170.853 80.458,171.278 77.000,167.500" stroke-width="3.691" stroke="black" fill="none" stroke-linecap="round"></path><path d="M 77.000,167.500 C 72.514,162.124 72.318,162.520 69.000,156.167" stroke-width="3.255" stroke="black" fill="none" stroke-linecap="round"></path><path d="M 69.000,156.167 C 65.057,148.959 64.847,149.124 61.667,141.500" stroke-width="2.970" stroke="black" fill="none" stroke-linecap="round"></path><path d="M 61.667,141.500 C 58.478,134.237 58.390,134.292 55.667,126.833" stroke-width="2.868" stroke="black" fill="none" stroke-linecap="round"></path><path d="M 55.667,126.833 C 53.747,120.971 53.478,121.071 51.667,115.167" stroke-width="3.132" stroke="black" fill="none" stroke-linecap="round"></path><path d="M 51.667,115.167 C 49.333,109.252 50.581,112.137 49.333,109.167" stroke-width="3.740" stroke="black" fill="none" stroke-linecap="round"></path><path d="M 49.333,109.167 C 50.299,112.098 49.333,109.085 51.667,114.833" stroke-width="4.625" stroke="black" fill="none" stroke-linecap="round"></path><path d="M 51.667,114.833 C 53.465,118.922 53.632,118.764 56.000,122.500" stroke-width="3.941" stroke="black" fill="none" stroke-linecap="round"></path><path d="M 56.000,122.500 C 59.094,127.084 59.132,126.922 63.000,130.833" stroke-width="3.568" stroke="black" fill="none" stroke-linecap="round"></path><path d="M 63.000,130.833 C 67.476,135.235 67.428,135.084 72.667,138.500" stroke-width="3.284" stroke="black" fill="none" stroke-linecap="round"></path><path d="M 72.667,138.500 C 77.869,142.260 77.810,141.735 83.667,143.833" stroke-width="3.276" stroke="black" fill="none" stroke-linecap="round"></path><path d="M 83.667,143.833 C 89.824,144.666 89.535,145.426 96.000,144.833" stroke-width="3.262" stroke="black" fill="none" stroke-linecap="round"></path><path d="M 96.000,144.833 C 102.531,146.053 102.158,145.000 108.333,144.500" stroke-width="3.201" stroke="black" fill="none" stroke-linecap="round"></path><path d="M 108.333,144.500 C 114.404,142.092 114.364,142.886 119.667,138.500" stroke-width="3.205" stroke="black" fill="none" stroke-linecap="round"></path><path d="M 119.667,138.500 C 124.980,134.782 124.904,134.925 129.333,130.167" stroke-width="3.210" stroke="black" fill="none" stroke-linecap="round"></path><path d="M 129.333,130.167 C 133.525,125.889 133.313,125.948 136.333,120.833" stroke-width="3.297" stroke="black" fill="none" stroke-linecap="round"></path><path d="M 136.333,120.833 C 139.044,115.122 139.358,115.389 141.000,109.167" stroke-width="3.193" stroke="black" fill="none" stroke-linecap="round"></path><path d="M 141.000,109.167 C 142.644,103.890 142.711,103.955 143.667,98.500" stroke-width="3.346" stroke="black" fill="none" stroke-linecap="round"></path><path d="M 143.667,98.500 C 144.370,94.178 144.478,94.223 144.667,89.833" stroke-width="3.597" stroke="black" fill="none" stroke-linecap="round"></path><path d="M 144.667,89.833 C 145.609,84.262 144.870,86.845 144.667,83.833" stroke-width="4.339" stroke="black" fill="none" stroke-linecap="round"></path><path d="M 144.667,83.833 C 142.047,85.608 143.775,83.428 141.000,88.167" stroke-width="4.665" stroke="black" fill="none" stroke-linecap="round"></path><path d="M 141.000,88.167 C 139.595,93.289 139.047,92.941 138.667,98.500" stroke-width="3.755" stroke="black" fill="none" stroke-linecap="round"></path><path d="M 138.667,98.500 C 137.644,105.497 137.428,105.456 136.667,112.500" stroke-width="3.181" stroke="black" fill="none" stroke-linecap="round"></path><path d="M 136.667,112.500 C 135.656,119.832 135.644,119.830 134.667,127.167" stroke-width="3.057" stroke="black" fill="none" stroke-linecap="round"></path><path d="M 134.667,127.167 C 133.701,134.671 133.656,134.665 132.667,142.167" stroke-width="2.939" stroke="black" fill="none" stroke-linecap="round"></path><path d="M 132.667,142.167 C 131.654,149.165 131.701,149.171 130.667,156.167" stroke-width="3.084" stroke="black" fill="none" stroke-linecap="round"></path><path d="M 130.667,156.167 C 129.857,162.170 129.821,162.165 129.000,168.167" stroke-width="3.165" stroke="black" fill="none" stroke-linecap="round"></path><path d="M 129.000,168.167 C 126.901,177.723 128.357,172.670 127.667,177.167" stroke-width="3.499" stroke="black" fill="none" stroke-linecap="round"></path><path d="M 127.667,177.167 C 130.620,171.493 128.735,176.390 132.667,165.500" stroke-width="4.271" stroke="black" fill="none" stroke-linecap="round"></path><path d="M 132.667,165.500 C 135.212,157.752 135.287,157.826 137.000,149.833" stroke-width="3.188" stroke="black" fill="none" stroke-linecap="round"></path><path d="M 137.000,149.833 C 138.876,142.213 138.712,142.252 139.667,134.500" stroke-width="3.008" stroke="black" fill="none" stroke-linecap="round"></path><path d="M 139.667,134.500 C 139.778,129.163 140.209,129.213 139.667,123.833" stroke-width="3.256" stroke="black" fill="none" stroke-linecap="round"></path><path d="M 139.667,123.833 C 140.968,119.794 139.611,121.163 139.333,118.500" stroke-width="3.911" stroke="black" fill="none" stroke-linecap="round"></path><path d="M 139.333,118.500 C 134.953,116.604 136.968,116.628 131.667,117.500" stroke-width="4.342" stroke="black" fill="none" stroke-linecap="round"></path><path d="M 131.667,117.500 C 129.506,119.225 129.453,118.104 128.333,121.500" stroke-width="4.317" stroke="black" fill="none" stroke-linecap="round"></path><path d="M 128.333,121.500 C 126.626,124.901 126.672,124.725 126.000,128.500" stroke-width="3.979" stroke="black" fill="none" stroke-linecap="round"></path><path d="M 126.000,128.500 C 125.490,132.683 125.293,132.568 125.667,136.833" stroke-width="3.833" stroke="black" fill="none" stroke-linecap="round"></path><path d="M 125.667,136.833 C 124.732,141.507 125.823,140.516 126.667,144.167" stroke-width="3.893" stroke="black" fill="none" stroke-linecap="round"></path><path d="M 126.667,144.167 C 129.915,146.896 128.732,147.007 133.667,147.833" stroke-width="3.803" stroke="black" fill="none" stroke-linecap="round"></path><path d="M 133.667,147.833 C 138.912,149.032 138.582,149.062 144.000,148.500" stroke-width="3.582" stroke="black" fill="none" stroke-linecap="round"></path><path d="M 144.000,148.500 C 150.702,148.347 150.078,147.865 156.000,145.500" stroke-width="3.347" stroke="black" fill="none" stroke-linecap="round"></path><path d="M 156.000,145.500 C 161.405,141.245 161.869,142.347 166.333,136.500" stroke-width="3.119" stroke="black" fill="none" stroke-linecap="round"></path><path d="M 166.333,136.500 C 170.319,132.461 170.405,132.579 174.000,128.167" stroke-width="3.295" stroke="black" fill="none" stroke-linecap="round"></path><path d="M 174.000,128.167 C 178.855,121.249 176.319,125.461 178.333,122.500" stroke-width="3.735" stroke="black" fill="none" stroke-linecap="round"></path><path d="M 178.333,122.500 C 174.232,129.195 177.188,125.249 170.667,136.167" stroke-width="4.276" stroke="black" fill="none" stroke-linecap="round"></path><path d="M 170.667,136.167 C 166.727,143.884 166.732,143.862 163.333,151.833" stroke-width="3.038" stroke="black" fill="none" stroke-linecap="round"></path><path d="M 163.333,151.833 C 160.455,158.762 160.394,158.718 158.000,165.833" stroke-width="3.004" stroke="black" fill="none" stroke-linecap="round"></path><path d="M 158.000,165.833 C 154.552,171.575 156.289,170.762 155.000,175.833" stroke-width="3.273" stroke="black" fill="none" stroke-linecap="round"></path><path d="M 155.000,175.833 C 157.674,179.679 155.218,177.909 159.333,178.500" stroke-width="4.371" stroke="black" fill="none" stroke-linecap="round"></path><path d="M 159.333,178.500 C 163.726,172.817 164.008,175.179 167.667,166.833" stroke-width="3.355" stroke="black" fill="none" stroke-linecap="round"></path><path d="M 167.667,166.833 C 172.310,158.876 172.726,159.150 177.333,151.167" stroke-width="2.869" stroke="black" fill="none" stroke-linecap="round"></path><path d="M 177.333,151.167 C 181.951,144.004 181.976,144.042 187.000,137.167" stroke-width="2.828" stroke="black" fill="none" stroke-linecap="round"></path><path d="M 187.000,137.167 C 191.242,129.799 189.951,133.170 193.333,129.500" stroke-width="3.248" stroke="black" fill="none" stroke-linecap="round"></path><path d="M 193.333,129.500 C 194.892,133.074 194.742,129.299 194.000,136.167" stroke-width="4.283" stroke="black" fill="none" stroke-linecap="round"></path><path d="M 194.000,136.167 C 191.146,141.489 192.392,141.741 188.333,146.833" stroke-width="3.535" stroke="black" fill="none" stroke-linecap="round"></path><path d="M 188.333,146.833 C 186.100,150.967 186.146,150.989 184.000,155.167" stroke-width="3.596" stroke="black" fill="none" stroke-linecap="round"></path><path d="M 184.000,155.167 C 180.479,160.612 182.766,157.634 181.667,160.167" stroke-width="3.988" stroke="black" fill="none" stroke-linecap="round"></path><path d="M 181.667,160.167 C 187.368,156.728 184.479,159.112 192.000,152.167" stroke-width="4.307" stroke="black" fill="none" stroke-linecap="round"></path><path d="M 192.000,152.167 C 197.560,145.076 198.368,145.895 203.667,138.500" stroke-width="3.071" stroke="black" fill="none" stroke-linecap="round"></path><path d="M 203.667,138.500 C 208.440,133.393 208.393,133.410 213.667,128.833" stroke-width="3.087" stroke="black" fill="none" stroke-linecap="round"></path><path d="M 213.667,128.833 C 218.269,123.698 216.273,126.559 219.333,124.833" stroke-width="3.629" stroke="black" fill="none" stroke-linecap="round"></path><path d="M 219.333,124.833 C 219.920,129.780 220.769,126.365 218.667,134.167" stroke-width="4.340" stroke="black" fill="none" stroke-linecap="round"></path><path d="M 218.667,134.167 C 216.667,137.667 217.587,137.946 214.667,141.167" stroke-width="3.959" stroke="black" fill="none" stroke-linecap="round"></path><path d="M 214.667,141.167 C 210.778,145.886 213.333,143.500 212.000,145.833" stroke-width="4.174" stroke="black" fill="none" stroke-linecap="round"></path><path d="M 212.000,145.833 C 217.666,144.036 214.611,145.720 222.333,140.833" stroke-width="4.588" stroke="black" fill="none" stroke-linecap="round"></path><path d="M 222.333,140.833 C 225.618,137.449 226.166,138.203 229.000,134.167" stroke-width="3.863" stroke="black" fill="none" stroke-linecap="round"></path><path d="M 229.000,134.167 C 233.725,128.722 231.285,131.949 233.667,129.833" stroke-width="4.021" stroke="black" fill="none" stroke-linecap="round"></path><path d="M 233.667,129.833 C 231.299,135.235 233.558,131.889 228.667,140.500" stroke-width="4.519" stroke="black" fill="none" stroke-linecap="round"></path><path d="M 228.667,140.500 C 224.943,143.904 227.299,143.235 225.667,145.833" stroke-width="4.244" stroke="black" fill="none" stroke-linecap="round"></path><path d="M 225.667,145.833 C 228.980,149.355 226.443,147.904 231.667,148.500" stroke-width="4.729" stroke="black" fill="none" stroke-linecap="round"></path><path d="M 231.667,148.500 C 236.102,144.947 236.313,147.022 240.333,141.167" stroke-width="3.690" stroke="black" fill="none" stroke-linecap="round"></path><path d="M 240.333,141.167 C 243.867,137.868 243.936,137.947 247.333,134.500" stroke-width="3.617" stroke="black" fill="none" stroke-linecap="round"></path><path d="M 247.333,134.500 C 251.435,129.927 249.700,132.201 252.000,129.833" stroke-width="3.865" stroke="black" fill="none" stroke-linecap="round"></path><path d="M 252.000,129.833 C 250.623,131.974 252.435,129.761 249.333,134.167" stroke-width="4.728" stroke="black" fill="none" stroke-linecap="round"></path><path d="M 249.333,134.167 C 244.361,140.793 247.290,137.641 245.333,141.167" stroke-width="4.581" stroke="black" fill="none" stroke-linecap="round"></path><path d="M 245.333,141.167 C 250.350,139.248 246.527,141.626 253.667,135.833" stroke-width="4.801" stroke="black" fill="none" stroke-linecap="round"></path><path d="M 253.667,135.833 C 254.191,131.207 256.016,133.415 256.667,129.500" stroke-width="4.687" stroke="black" fill="none" stroke-linecap="round"></path><path d="M 256.667,129.500 C 260.001,129.105 259.025,127.874 263.333,129.167" stroke-width="4.876" stroke="black" fill="none" stroke-linecap="round"></path><path d="M 263.333,129.167 C 269.117,130.617 269.001,129.272 274.667,129.833" stroke-width="3.716" stroke="black" fill="none" stroke-linecap="round"></path><path d="M 274.667,129.833 C 284.701,129.973 283.284,128.617 291.667,125.167" stroke-width="2.992" stroke="black" fill="none" stroke-linecap="round"></path><path d="M 291.667,125.167 C 301.273,116.964 301.368,118.473 308.000,106.833" stroke-width="2.473" stroke="black" fill="none" stroke-linecap="round"></path><path d="M 308.000,106.833 C 315.269,95.692 315.107,96.131 319.333,83.500" stroke-width="2.234" stroke="black" fill="none" stroke-linecap="round"></path><path d="M 319.333,83.500 C 322.365,71.745 323.103,72.192 323.667,59.833" stroke-width="2.300" stroke="black" fill="none" stroke-linecap="round"></path><path d="M 323.667,59.833 C 325.515,50.995 324.532,51.912 323.667,43.833" stroke-width="2.688" stroke="black" fill="none" stroke-linecap="round"></path><path d="M 323.667,43.833 C 321.391,39.614 322.848,40.661 318.333,39.167" stroke-width="3.434" stroke="black" fill="none" stroke-linecap="round"></path><path d="M 318.333,39.167 C 312.210,38.418 314.558,38.614 310.000,41.833" stroke-width="3.625" stroke="black" fill="none" stroke-linecap="round"></path><path d="M 310.000,41.833 C 304.254,54.415 303.043,52.585 300.000,67.500" stroke-width="2.446" stroke="black" fill="none" stroke-linecap="round"></path><path d="M 300.000,67.500 C 293.789,88.442 293.254,88.249 288.000,109.500" stroke-width="1.704" stroke="black" fill="none" stroke-linecap="round"></path><path d="M 288.000,109.500 C 283.041,130.494 282.289,130.275 277.000,151.167" stroke-width="1.623" stroke="black" fill="none" stroke-linecap="round"></path><path d="M 277.000,151.167 C 273.523,167.679 272.375,166.994 266.667,182.500" stroke-width="1.816" stroke="black" fill="none" stroke-linecap="round"></path><path d="M 266.667,182.500 C 261.778,192.944 262.189,192.179 254.333,200.167" stroke-width="2.187" stroke="black" fill="none" stroke-linecap="round"></path><path d="M 254.333,200.167 C 249.032,204.449 250.612,203.777 244.333,204.167" stroke-width="2.937" stroke="black" fill="none" stroke-linecap="round"></path><path d="M 244.333,204.167 C 238.885,202.866 240.698,203.949 237.667,199.167" stroke-width="3.477" stroke="black" fill="none" stroke-linecap="round"></path><path d="M 237.667,199.167 C 235.199,188.009 234.385,189.199 235.333,176.833" stroke-width="2.595" stroke="black" fill="none" stroke-linecap="round"></path><path d="M 235.333,176.833 C 234.388,159.703 235.532,160.342 238.333,143.833" stroke-width="2.072" stroke="black" fill="none" stroke-linecap="round"></path><path d="M 238.333,143.833 C 242.815,129.223 241.888,129.537 250.333,116.500" stroke-width="2.050" stroke="black" fill="none" stroke-linecap="round"></path><path d="M 250.333,116.500 C 256.015,106.270 255.815,107.223 264.333,99.833" stroke-width="2.272" stroke="black" fill="none" stroke-linecap="round"></path><path d="M 264.333,99.833 C 271.147,96.157 270.015,95.437 278.333,94.833" stroke-width="2.738" stroke="black" fill="none" stroke-linecap="round"></path><path d="M 278.333,94.833 C 285.345,92.639 283.814,93.824 289.667,95.167" stroke-width="3.154" stroke="black" fill="none" stroke-linecap="round"></path><path d="M 289.667,95.167 C 294.461,99.640 294.178,97.806 296.000,105.167" stroke-width="3.266" stroke="black" fill="none" stroke-linecap="round"></path><path d="M 296.000,105.167 C 297.000,113.332 298.128,112.807 297.000,121.500" stroke-width="2.911" stroke="black" fill="none" stroke-linecap="round"></path><path d="M 297.000,121.500 C 298.367,130.718 297.000,130.166 296.000,138.833" stroke-width="2.820" stroke="black" fill="none" stroke-linecap="round"></path><path d="M 296.000,138.833 C 292.290,146.472 293.700,146.718 287.667,153.500" stroke-width="2.762" stroke="black" fill="none" stroke-linecap="round"></path><path d="M 287.667,153.500 C 284.054,159.446 283.957,159.139 279.333,164.167" stroke-width="3.011" stroke="black" fill="none" stroke-linecap="round"></path><path d="M 279.333,164.167 C 274.367,169.664 276.721,166.779 273.000,168.167" stroke-width="3.585" stroke="black" fill="none" stroke-linecap="round"></path><path d="M 273.000,168.167 C 270.394,161.572 270.867,165.831 272.333,156.500" stroke-width="3.965" stroke="black" fill="none" stroke-linecap="round"></path><path d="M 272.333,156.500 C 276.173,149.980 274.727,150.239 281.667,145.500" stroke-width="3.271" stroke="black" fill="none" stroke-linecap="round"></path><path d="M 281.667,145.500 C 287.493,141.183 287.006,141.146 294.000,138.833" stroke-width="3.137" stroke="black" fill="none" stroke-linecap="round"></path><path d="M 294.000,138.833 C 299.794,137.375 299.493,136.850 305.667,136.833" stroke-width="3.204" stroke="black" fill="none" stroke-linecap="round"></path><path d="M 305.667,136.833 C 310.891,135.842 310.628,136.375 315.667,136.833" stroke-width="3.433" stroke="black" fill="none" stroke-linecap="round"></path><path d="M 315.667,136.833 C 320.442,137.691 319.725,137.676 323.333,140.500" stroke-width="3.649" stroke="black" fill="none" stroke-linecap="round"></path><path d="M 323.333,140.500 C 325.581,144.224 326.275,143.358 327.333,148.167" stroke-width="3.651" stroke="black" fill="none" stroke-linecap="round"></path><path d="M 327.333,148.167 C 328.822,151.785 328.914,151.724 330.000,155.500" stroke-width="3.792" stroke="black" fill="none" stroke-linecap="round"></path><path d="M 330.000,155.500 C 330.274,158.955 330.989,158.618 331.667,161.833" stroke-width="3.976" stroke="black" fill="none" stroke-linecap="round"></path><path d="M 331.667,161.833 C 332.861,164.764 332.774,164.122 335.000,165.833" stroke-width="4.160" stroke="black" fill="none" stroke-linecap="round"></path><path d="M 335.000,165.833 C 338.093,167.287 337.195,166.931 340.333,166.167" stroke-width="4.243" stroke="black" fill="none" stroke-linecap="round"></path><path d="M 340.333,166.167 C 345.598,163.241 345.093,163.787 349.000,158.833" stroke-width="3.594" stroke="black" fill="none" stroke-linecap="round"></path><path d="M 349.000,158.833 C 352.742,153.253 352.931,153.741 355.000,147.167" stroke-width="3.226" stroke="black" fill="none" stroke-linecap="round"></path><path d="M 355.000,147.167 C 356.344,142.680 356.575,142.920 356.667,138.167" stroke-width="3.516" stroke="black" fill="none" stroke-linecap="round"></path><path d="M 356.667,138.167 C 357.423,134.748 356.844,135.680 356.000,133.167" stroke-width="4.054" stroke="black" fill="none" stroke-linecap="round"></path><path d="M 356.000,133.167 C 353.401,131.891 354.423,131.415 350.667,131.500" stroke-width="4.134" stroke="black" fill="none" stroke-linecap="round"></path><path d="M 350.667,131.500 C 347.155,130.481 347.568,131.057 344.333,131.500" stroke-width="4.109" stroke="black" fill="none" stroke-linecap="round"></path><path d="M 344.333,131.500 C 340.233,133.092 341.155,132.648 338.667,135.833" stroke-width="4.457" stroke="black" fill="none" stroke-linecap="round"></path><path d="M 338.667,135.833 C 337.451,139.284 337.566,137.759 339.000,140.833" stroke-width="4.378" stroke="black" fill="none" stroke-linecap="round"></path><path d="M 339.000,140.833 C 343.105,143.622 341.951,143.784 347.667,144.833" stroke-width="3.862" stroke="black" fill="none" stroke-linecap="round"></path><path d="M 347.667,144.833 C 353.973,146.082 353.772,146.455 360.333,146.500" stroke-width="3.245" stroke="black" fill="none" stroke-linecap="round"></path><path d="M 360.333,146.500 C 366.667,146.500 366.639,146.915 373.000,146.500" stroke-width="3.230" stroke="black" fill="none" stroke-linecap="round"></path><path d="M 373.000,146.500 C 379.911,147.490 377.000,146.500 381.000,146.500" stroke-width="3.625" stroke="black" fill="none" stroke-linecap="round"></path><path d="M 381.000,146.500 C 379.251,143.605 381.744,145.823 376.667,143.167" stroke-width="4.389" stroke="black" fill="none" stroke-linecap="round"></path><path d="M 376.667,143.167 C 369.000,143.167 369.418,141.938 361.333,143.167" stroke-width="3.278" stroke="black" fill="none" stroke-linecap="round"></path><path d="M 361.333,143.167 C 353.797,142.688 353.833,143.167 346.333,143.167" stroke-width="3.070" stroke="black" fill="none" stroke-linecap="round"></path><path d="M 346.333,143.167 C 340.594,143.347 340.797,143.522 335.333,144.833" stroke-width="3.239" stroke="black" fill="none" stroke-linecap="round"></path><path d="M 335.333,144.833 C 329.798,146.470 332.927,145.513 331.000,147.500" stroke-width="3.932" stroke="black" fill="none" stroke-linecap="round"></path><path d="M 331.000,147.500 C 337.566,151.312 334.465,150.470 344.667,152.833" stroke-width="3.905" stroke="black" fill="none" stroke-linecap="round"></path><path d="M 344.667,152.833 C 354.153,153.876 353.899,154.812 363.667,154.500" stroke-width="2.934" stroke="black" fill="none" stroke-linecap="round"></path><path d="M 363.667,154.500 C 374.501,154.972 374.486,155.209 385.333,155.500" stroke-width="2.594" stroke="black" fill="none" stroke-linecap="round"></path><path d="M 385.333,155.500 C 395.005,155.920 395.001,155.972 404.667,156.500" stroke-width="2.560" stroke="black" fill="none" stroke-linecap="round"></path><path d="M 404.667,156.500 C 411.716,156.675 411.672,156.920 418.667,157.500" stroke-width="2.904" stroke="black" fill="none" stroke-linecap="round"></path><path d="M 418.667,157.500 C 424.248,158.148 421.549,157.842 424.333,158.833" stroke-width="3.699" stroke="black" fill="none" stroke-linecap="round"></path><path d="M 424.333,158.833 C 421.729,160.008 424.414,159.481 419.000,160.167" stroke-width="4.419" stroke="black" fill="none" stroke-linecap="round"></path><path d="M 419.000,160.167 C 410.167,160.167 410.229,160.675 401.333,160.167" stroke-width="3.109" stroke="black" fill="none" stroke-linecap="round"></path><path d="M 401.333,160.167 C 386.978,160.777 387.000,160.167 372.667,160.167" stroke-width="2.253" stroke="black" fill="none" stroke-linecap="round"></path><path d="M 372.667,160.167 C 351.799,159.051 351.811,159.277 331.000,157.167" stroke-width="1.775" stroke="black" fill="none" stroke-linecap="round"></path><path d="M 331.000,157.167 C 302.204,153.750 302.133,154.551 273.333,151.167" stroke-width="1.393" stroke="black" fill="none" stroke-linecap="round"></path><path d="M 273.333,151.167 C 238.883,147.452 238.871,148.083 204.333,145.833" stroke-width="1.139" stroke="black" fill="none" stroke-linecap="round"></path><path d="M 204.333,145.833 C 167.669,145.037 167.717,144.118 131.000,144.500" stroke-width="1.125" stroke="black" fill="none" stroke-linecap="round"></path><path d="M 131.000,144.500 C 99.305,144.874 99.335,144.037 67.667,143.833" stroke-width="1.155" stroke="black" fill="none" stroke-linecap="round"></path><path d="M 67.667,143.833 C 48.418,143.528 48.638,143.207 29.667,141.167" stroke-width="1.470" stroke="black" fill="none" stroke-linecap="round"></path><path d="M 29.667,141.167 C 20.727,139.116 25.918,140.695 22.667,138.167" stroke-width="2.602" stroke="black" fill="none" stroke-linecap="round"></path><path d="M 22.667,138.167 C 33.895,135.212 28.560,135.282 45.333,133.500" stroke-width="2.444" stroke="black" fill="none" stroke-linecap="round"></path><path d="M 45.333,133.500 C 79.525,127.504 79.562,128.378 114.000,124.500" stroke-width="1.326" stroke="black" fill="none" stroke-linecap="round"></path><path d="M 114.000,124.500 C 167.615,119.733 167.525,119.837 221.333,118.167" stroke-width="1.125" stroke="black" fill="none" stroke-linecap="round"></path><path d="M 221.333,118.167 C 287.666,117.668 287.615,116.233 354.000,117.500" stroke-width="1.125" stroke="black" fill="none" stroke-linecap="round"></path><path d="M 354.000,117.500 C 419.333,117.500 419.333,117.335 484.667,117.500" stroke-width="1.125" stroke="black" fill="none" stroke-linecap="round"></path></svg>